<svg width="169" height="57" viewBox="0 0 169 57" fill="none" xmlns="http://www.w3.org/2000/svg">
<path d="M63.1579 21.8253L54.3931 20.1404V15.3663L45.0806 13.1197L45.6284 23.2295L60.145 24.9144C60.145 24.9144 61.6345 25.2701 62.0623 26.0377L63.1579 28.0035V44.0106C63.1579 44.0106 62.8425 44.5376 62.6101 44.8531C62.0632 45.5958 60.9667 46.5381 60.9667 46.5381L39.3287 56.9287C39.3287 56.9287 38.4706 57.0892 37.9592 56.9287C36.8529 56.5814 36.3158 54.4012 36.3158 54.4012V41.2024L45.9023 39.5174V44.0106L54.3931 41.2024L53.8453 32.7776L40.6982 33.9009C40.6982 33.9009 38.8462 33.5313 37.9592 32.7776C36.9988 31.9615 36.3158 29.9693 36.3158 29.9693V1.88666C36.3158 1.88666 37.1329 0.586772 37.9592 0.201696C38.933 -0.25212 40.6982 0.201696 40.6982 0.201696C40.6982 0.201696 56.335 3.21569 61.5145 10.8731C62.2254 11.9241 63.1579 13.6814 63.1579 13.6814V21.8253Z" fill="black"/>
<path d="M18.0773 18.1383V13.1154L9.03867 15.6268V41.5785L18.0773 44.6481L17.8034 32.928H13.695V23.7193L26.8421 22.8822V54.973C26.8421 54.973 25.9358 56.6055 24.9248 56.9263C23.8833 57.2568 22.1858 56.3682 22.1858 56.3682L6.29968 48.5548C6.29968 48.5548 3.95916 47.4277 2.73899 46.3224C1.42794 45.1348 0 42.6947 0 42.6947V13.1154C0 13.1154 0.821697 11.9992 1.0956 11.7201C1.3695 11.4411 3.01289 10.0458 3.01289 10.0458L23.5553 0C23.5553 0 25.0483 0.00898557 25.7465 0.558101C26.5038 1.1537 26.8421 2.79051 26.8421 2.79051V16.464L18.0773 18.1383Z" fill="black"/>
<path d="M92.608 23H81.784C80.616 23 79.56 22.784 78.616 22.352C77.672 21.92 76.856 21.32 76.168 20.552C75.496 19.784 74.976 18.896 74.608 17.888C74.24 16.864 74.056 15.768 74.056 14.6C74.056 13.448 74.24 12.368 74.608 11.36C74.976 10.336 75.496 9.44 76.168 8.672C76.856 7.888 77.672 7.28 78.616 6.848C79.56 6.416 80.616 6.2 81.784 6.2H92.608V8.6H81.784C80.68 8.6 79.728 8.872 78.928 9.416C78.144 9.944 77.536 10.664 77.104 11.576C76.672 12.488 76.456 13.496 76.456 14.6C76.456 15.704 76.672 16.712 77.104 17.624C77.536 18.52 78.144 19.24 78.928 19.784C79.728 20.328 80.68 20.6 81.784 20.6H90.208V15.8H80.032V13.4H92.608V23ZM109.621 23H95.8452V9.752H109.621V12.176H98.2692V20.576H109.621V23ZM108.085 17.528H99.3972V15.104H108.085V17.528ZM119.571 23H117.171V12.176H110.811V9.8H125.907V12.176H119.571V23Z" fill="black"/>
<path d="M95.568 42.2C95.568 43.08 95.352 43.888 94.92 44.624C94.488 45.344 93.912 45.92 93.192 46.352C92.472 46.784 91.664 47 90.768 47H76.176V44.6H90.768C91.44 44.6 92.008 44.368 92.472 43.904C92.936 43.424 93.168 42.856 93.168 42.2C93.168 41.544 92.936 40.984 92.472 40.52C92.008 40.04 91.44 39.8 90.768 39.8H80.976C80.096 39.8 79.288 39.584 78.552 39.152C77.832 38.72 77.256 38.144 76.824 37.424C76.392 36.688 76.176 35.88 76.176 35C76.176 34.12 76.392 33.32 76.824 32.6C77.256 31.864 77.832 31.28 78.552 30.848C79.288 30.416 80.096 30.2 80.976 30.2H94.368V32.6H80.976C80.32 32.6 79.752 32.84 79.272 33.32C78.808 33.784 78.576 34.344 78.576 35C78.576 35.656 78.808 36.224 79.272 36.704C79.752 37.168 80.32 37.4 80.976 37.4H90.768C91.664 37.4 92.472 37.616 93.192 38.048C93.912 38.48 94.488 39.064 94.92 39.8C95.352 40.52 95.568 41.32 95.568 42.2ZM113.632 40.376C113.632 41.592 113.376 42.704 112.864 43.712C112.368 44.704 111.664 45.504 110.752 46.112C109.84 46.704 108.776 47 107.56 47H103.384C102.168 47 101.096 46.704 100.168 46.112C99.2556 45.504 98.5436 44.704 98.0316 43.712C97.5356 42.704 97.2876 41.592 97.2876 40.376C97.2876 39.16 97.5356 38.056 98.0316 37.064C98.5436 36.072 99.2556 35.28 100.168 34.688C101.096 34.096 102.168 33.8 103.384 33.8H107.56C108.776 33.8 109.84 34.096 110.752 34.688C111.664 35.28 112.368 36.072 112.864 37.064C113.376 38.056 113.632 39.16 113.632 40.376ZM111.232 40.376C111.232 39.608 111.088 38.904 110.8 38.264C110.512 37.624 110.088 37.12 109.528 36.752C108.984 36.368 108.328 36.176 107.56 36.176H103.384C102.616 36.176 101.952 36.368 101.392 36.752C100.848 37.12 100.424 37.624 100.12 38.264C99.8316 38.904 99.6876 39.608 99.6876 40.376C99.6876 41.144 99.8316 41.848 100.12 42.488C100.424 43.128 100.848 43.64 101.392 44.024C101.952 44.408 102.616 44.6 103.384 44.6H107.56C108.328 44.6 108.984 44.408 109.528 44.024C110.088 43.64 110.512 43.128 110.8 42.488C111.088 41.848 111.232 41.144 111.232 40.376ZM128.915 47H116.291V33.8H118.691V44.6H128.915V47ZM146.058 47H143.658V43.376H134.418V40.928H143.658V36.176H137.418C136.634 36.176 135.922 36.368 135.282 36.752C134.642 37.136 134.13 37.648 133.746 38.288C133.362 38.912 133.17 39.616 133.17 40.4V47H130.746V40.4C130.746 39.488 130.914 38.632 131.25 37.832C131.602 37.016 132.082 36.304 132.69 35.696C133.314 35.088 134.026 34.616 134.826 34.28C135.642 33.928 136.506 33.752 137.418 33.752H146.058V47ZM165.053 47H161.789L158.045 43.424H153.173V41.048H159.821C160.493 41.048 161.061 40.808 161.525 40.328C162.005 39.832 162.245 39.256 162.245 38.6C162.245 37.928 162.005 37.36 161.525 36.896C161.061 36.416 160.493 36.176 159.821 36.176H151.925V47H149.525V33.8H159.821C160.717 33.8 161.525 34.016 162.245 34.448C162.965 34.88 163.541 35.464 163.973 36.2C164.405 36.92 164.621 37.72 164.621 38.6C164.621 39.32 164.469 40 164.165 40.64C163.877 41.264 163.469 41.808 162.941 42.272C162.429 42.72 161.837 43.04 161.165 43.232L165.053 47Z" fill="black"/>
</svg>
